<svg xmlns="http://www.w3.org/2000/svg" width="52" height="49" fill="none"><rect width="52" height="49" fill="#141414" rx="4"/><rect width="20" height="20" x="30" y="2" fill="#36383C" rx="4"/><path fill="#C0C1C2" d="M36.063 15 35 13.937l5-5 5 5L43.937 15 40 11.062 36.062 15Z"/><path fill="#fff" d="M13 39c-.55 0-1.02-.196-1.412-.587A1.926 1.926 0 0 1 11 37V25c0-.55.196-1.02.588-1.413A1.926 1.926 0 0 1 13 23h12c.55 0 1.02.196 1.413.587.391.392.587.863.587 1.413v4.5l4-4v11l-4-4V37c0 .55-.196 1.02-.587 1.413A1.926 1.926 0 0 1 25 39H13Zm0-2h12V25H13v12Z"/></svg>