<svg xmlns="http://www.w3.org/2000/svg" width="82" height="24" fill="none"><path fill="#E20613" d="M57.6 2.4A2.4 2.4 0 0 1 60 0h19.2a2.4 2.4 0 0 1 2.4 2.4v19.2a2.4 2.4 0 0 1-2.4 2.4H60a2.4 2.4 0 0 1-2.4-2.4V2.4Z"/><g stroke="#fff"><rect width="3.2" height="3.8" x="63.5" y="14.301" rx=".5"/><rect width="3.2" height="13.4" x="73.1" y="4.701" rx=".5"/><rect width="3.2" height="8" x="68.3" y="10.102" rx=".5"/></g><path fill="#F4BF4F" d="M28.8 2.4A2.4 2.4 0 0 1 31.2 0h19.2a2.4 2.4 0 0 1 2.4 2.4v19.2a2.4 2.4 0 0 1-2.4 2.4H31.2a2.4 2.4 0 0 1-2.4-2.4V2.4Z"/><g stroke="#fff"><rect width="3.2" height="3.8" x="34.7" y="14.301" rx=".5"/><rect width="3.2" height="13.4" x="44.3" y="4.701" rx=".5"/><rect width="3.2" height="8" x="39.5" y="10.102" rx=".5"/></g><path fill="#5CBF73" d="M0 2.4A2.4 2.4 0 0 1 2.4 0h19.2A2.4 2.4 0 0 1 24 2.4v19.2a2.4 2.4 0 0 1-2.4 2.4H2.4A2.4 2.4 0 0 1 0 21.6V2.4Z"/><g stroke="#fff"><rect width="3.2" height="3.8" x="5.9" y="14.301" rx=".5"/><rect width="3.2" height="13.4" x="15.5" y="4.701" rx=".5"/><rect width="3.2" height="8" x="10.7" y="10.102" rx=".5"/></g></svg>