<svg width="48" height="48" fill="none" xmlns="http://www.w3.org/2000/svg"><path d="m39.6 45.2-6.05-6.05c-.833.533-1.717.991-2.65 1.375-.933.383-1.9.691-2.9.925v-4.1c.466-.167.925-.334 1.375-.5a8.13 8.13 0 0 0 1.275-.6L24 29.6V40L14 30H6V18h6.4L2.8 8.4l2.8-2.8 36.8 36.8-2.8 2.8Zm-.4-11.6-2.9-2.9a13.583 13.583 0 0 0 1.275-3.25c.283-1.134.425-2.3.425-3.5 0-3.134-.917-5.934-2.75-8.4-1.834-2.467-4.25-4.134-7.25-5v-4.1c4.133.933 7.5 3.025 10.1 6.275 2.6 3.25 3.9 6.991 3.9 11.225a17.88 17.88 0 0 1-.725 5.1A17.604 17.604 0 0 1 39.2 33.6Zm-6.7-6.7L28 22.4v-6.5a8.301 8.301 0 0 1 3.675 3.3A9.133 9.133 0 0 1 33 24a8.543 8.543 0 0 1-.5 2.9ZM24 18.4l-5.2-5.2L24 8v10.4Zm-4 11.9v-4.7L16.4 22H10v4h5.7l4.3 4.3Z" fill="#888"/></svg>