<svg width="24" height="24" fill="none" xmlns="http://www.w3.org/2000/svg"><path d="M14 20.725v-2.05c1.5-.434 2.708-1.267 3.625-2.5.917-1.234 1.375-2.634 1.375-4.2 0-1.567-.458-2.967-1.375-4.2C16.708 6.54 15.5 5.708 14 5.275v-2.05c2.067.466 3.75 1.512 5.05 3.137C20.35 7.987 21 9.858 21 11.975c0 2.116-.65 3.987-1.95 5.612-1.3 1.625-2.983 2.67-5.05 3.138ZM3 15V9h4l5-5v16l-5-5H3Zm11 1V7.95a4.151 4.151 0 0 1 1.838 1.65c.441.733.662 1.533.662 2.4 0 .85-.22 1.637-.662 2.362A4.174 4.174 0 0 1 14 16Zm-4-7.15L7.85 11H5v2h2.85L10 15.15v-6.3Z" fill="#888"/></svg>